<svg width="191" height="212" viewBox="0 0 191 212" fill="none" xmlns="http://www.w3.org/2000/svg">
<g opacity="0.3" clip-path="url(#clip0_51_248)">
<path d="M65.218 37.0283L62.773 29.5933C50.4013 35.0418 38.06 40.5832 25.7494 46.2176C25.159 46.4941 24.6798 46.8577 24.3244 47.2835C15.7749 46.9642 8.0135 53.0593 6.44601 61.9169C6.42709 61.9849 6.43931 62.0221 6.42039 62.0901C6.2125 62.7764 6.21479 63.5996 6.61358 64.4983C25.5625 109.061 48.9607 151.646 65.8156 197.124C66.1707 198.078 66.7567 198.73 67.4678 199.135C68.1627 200.369 69.162 201.461 70.5098 202.295C75.3815 205.369 82.1535 203.925 86.5777 200.678C89.4773 198.571 91.4632 195.631 92.4895 192.348C99.14 192.983 107.706 189.713 114.387 186.548L111.991 179.261C106.701 182.072 100.381 184.892 95.5865 183.935C80.9354 181.008 103.97 169.623 107.593 167.896C107.792 167.81 107.966 167.712 108.165 167.626L105.671 160.042C98.9722 163.027 90.4264 167.177 85.7063 172.663C67.0945 132.83 49.2283 92.6894 32.1327 52.1928C32.1394 52.0876 32.1461 51.9824 32.1342 51.8833C43.1397 46.8635 54.1697 41.918 65.218 37.0283ZM83.7228 186.848C84.1653 187.691 84.6951 188.423 85.2749 189.056C84.989 190.51 84.4058 191.876 83.3709 193.061C81.6998 195.011 77.3475 197.472 74.9258 195.57C70.83 192.344 78.492 187.579 83.0784 185.453C83.2745 185.924 83.4833 186.371 83.7228 186.848Z" fill="#FAF000"/>
<path d="M179.73 145.286C165.866 151.473 152.181 158.012 138.667 164.949C131.711 168.534 124.835 172.298 117.941 176.007C116.275 176.906 114.229 178.093 111.991 179.262C106.701 182.072 100.381 184.892 95.5865 183.935C80.9354 181.009 103.97 169.623 107.593 167.896C107.792 167.81 107.966 167.712 108.165 167.626C115.374 164.184 122.627 160.81 129.885 157.455C144.775 150.561 159.726 143.852 174.757 137.261C177.628 136.008 177.756 132.629 176.332 130.749C176.247 130.489 176.155 130.21 176.051 129.894C157.889 89.4807 139.745 49.0611 121.576 8.62893C121.509 8.42447 121.373 8.2631 121.275 8.08947C120.587 6.68844 119.184 5.74921 117.359 6.22587C116.459 6.31571 115.577 6.64699 114.929 7.18947C97.4703 14.4963 80.0849 21.9643 62.7731 29.5935C50.4013 35.042 38.0601 40.5834 25.7495 46.2178C25.1591 46.4943 24.6799 46.8579 24.3244 47.2838C15.775 46.9644 8.01356 53.0595 6.44608 61.9171C6.42716 61.9851 6.43938 62.0223 6.42045 62.0903C6.21257 62.7766 6.21486 63.5998 6.61364 64.4985C25.5626 109.061 48.9607 151.646 65.8156 197.124C66.1707 198.079 66.7567 198.73 67.4679 199.135C68.1627 200.369 69.1621 201.462 70.5099 202.295C75.3816 205.369 82.1536 203.925 86.5778 200.678C89.4774 198.571 91.4632 195.632 92.4896 192.349C99.14 192.983 107.707 189.713 114.387 186.548C117.569 185.049 120.342 183.56 122.275 182.533C141.939 171.947 161.78 161.838 182.175 152.722C186.742 150.663 184.353 143.21 179.73 145.286ZM14.3239 62.6427C15.6508 57.4483 19.9486 54.6961 24.9438 55.2574C42.3951 96.5846 60.6604 137.562 79.6963 178.182C75.8631 179.711 72.28 182.125 69.6976 185.322C53.2903 143.528 31.9243 103.921 14.3239 62.6427ZM83.3709 193.061C81.6998 195.011 77.3476 197.472 74.9259 195.57C70.83 192.344 78.4921 187.58 83.0784 185.453C83.2746 185.924 83.4833 186.371 83.7229 186.848C84.1653 187.691 84.6951 188.423 85.275 189.057C84.9891 190.51 84.4059 191.876 83.3709 193.061ZM85.7063 172.663C67.0946 132.83 49.2284 92.6896 32.1328 52.193C32.1395 52.0878 32.1462 51.9826 32.1342 51.8836C43.1398 46.8637 54.1698 41.9183 65.2181 37.0286C82.0638 29.6145 98.9896 22.3182 115.976 15.2079L168.255 131.614C149.445 139.9 130.709 148.409 112.102 157.185C110.418 157.966 108.175 158.93 105.671 160.042C98.9723 163.028 90.4264 167.177 85.7063 172.663Z" fill="#1A2C90"/>
</g>
<defs>
<clipPath id="clip0_51_248">
<rect width="143" height="176.064" fill="white" transform="translate(0.072876 44.6719) rotate(-18.2034)"/>
</clipPath>
</defs>
</svg>
