<svg width="188" height="168" viewBox="0 0 188 168" fill="none" xmlns="http://www.w3.org/2000/svg">
<g opacity="0.3" clip-path="url(#clip0_51_243)">
<path d="M164.829 79.3534C164.972 68.1602 166.565 50.4717 152.764 46.6929C152.601 46.6929 152.438 46.7134 152.233 46.6929C146.334 46.2436 140.413 45.8351 134.513 45.4878C142.026 55.9049 149.641 66.2402 157.398 76.4938C158.909 78.4955 158.072 80.4563 156.459 81.5185C155.806 82.3763 154.806 82.9891 153.458 83.0912C143.108 83.8061 132.758 84.6436 122.407 85.5832C116.814 99.6972 111.22 113.811 105.647 127.946C105.606 129.457 104.728 130.846 102.707 131.132C81.7614 134.175 60.5504 132.582 41.1155 123.758C25.2736 116.569 8.30882 103.496 2.18436 86.6453C1.65358 85.2155 1.9598 84.0308 2.67432 83.1729C7.16559 69.3653 12.2081 55.7823 17.8221 42.4036C17.8834 42.2606 17.9855 42.1176 18.0467 41.9951C12.1672 33.2529 6.38982 24.4291 0.755325 15.5032C0.0816352 14.441 -2.4176e-05 13.3993 0.244954 12.5006C-0.387906 10.4785 0.326614 8.23167 2.98054 7.82315C35.5218 2.9823 68.3081 0.326985 101.196 0.000176397C103.646 -0.0202491 104.953 1.73635 105.116 3.6155C112.751 14.8291 120.509 25.961 128.389 36.9908C136.351 37.3993 144.292 37.91 152.233 38.5227C152.438 38.5432 152.621 38.6044 152.826 38.6453C153.377 38.5227 153.969 38.5432 154.622 38.7066C164.891 41.3006 170.158 49.8793 172.118 59.4793L164.789 82.2946C164.809 81.3142 164.809 80.3338 164.829 79.3534Z" fill="#9AB6C3"/>
<path d="M172.587 118.264C172.587 118.264 172.526 118.223 172.505 118.203C172.771 100.596 174.322 82.3966 172.873 64.8715C172.73 63.0536 172.485 61.2562 172.118 59.4792C170.158 49.8792 164.891 41.3004 154.622 38.7064C153.969 38.543 153.377 38.5226 152.826 38.6451C152.621 38.6043 152.438 38.543 152.233 38.5226C144.292 37.9098 136.351 37.3992 128.389 36.9906C120.509 25.9609 112.751 14.8289 105.116 3.61532C104.953 1.73617 103.646 0 101.196 0C68.3081 0.326809 35.5218 2.98213 2.98054 7.82298C0.326614 8.23149 -0.387906 10.4783 0.244954 12.5004C-2.41725e-05 13.3991 0.0816352 14.4409 0.755325 15.503C6.38982 24.4289 12.1672 33.2528 18.0467 41.9949C17.9855 42.1174 17.8834 42.2604 17.8221 42.4034C12.2081 55.7821 7.16559 69.3651 2.67432 83.1728C1.9598 84.0306 1.65358 85.2153 2.18436 86.6451C8.30882 103.496 25.2736 116.569 41.1155 123.758C60.5504 132.582 81.7614 134.175 102.707 131.132C104.728 130.846 105.606 129.457 105.647 127.946C111.22 113.811 116.814 99.697 122.407 85.583C132.758 84.6434 143.108 83.806 153.458 83.0911C154.806 82.9889 155.806 82.3762 156.459 81.5183C158.072 80.4562 158.909 78.4953 157.398 76.4936C149.641 66.24 142.026 55.9047 134.513 45.4877C140.413 45.8349 146.334 46.2434 152.233 46.6928C152.438 46.7132 152.601 46.6928 152.764 46.6928C166.565 50.4715 164.972 68.16 164.829 79.3532C164.809 80.3336 164.809 81.314 164.789 82.2945C164.646 94.08 164.482 105.845 164.339 117.61C150.029 127.333 145.15 143.918 145.517 160.729C145.517 160.953 145.558 161.157 145.599 161.341C145.007 163.343 145.68 165.835 148.151 166.754C152.785 168.49 158.705 167.612 163.584 167.673C169.994 167.796 176.425 167.898 182.856 168C186 168.041 187.245 165.161 186.633 162.812C188.572 146.41 183.387 130.683 172.587 118.264ZM98.6649 123.493C80.8836 125.801 62.449 124.269 45.913 116.997C32.2963 110.992 16.3114 99.9421 10.4932 85.5217C14.3924 73.5115 18.7408 61.6647 23.4975 49.9813C32.8679 63.5847 42.5649 76.9838 52.5682 90.1583C52.7111 90.3421 52.8744 90.5055 53.0377 90.6485C53.4869 92.0987 54.7118 93.1609 56.7124 92.8749C75.5553 90.383 94.4186 88.2383 113.343 86.4204C108.444 98.7779 103.564 111.135 98.6649 123.493ZM146.476 75.4315C117.059 77.617 87.7022 80.64 58.4681 84.48C41.4013 61.9915 25.294 38.8289 10.1257 15.0128C39.3802 10.8664 68.8388 8.64 98.3995 8.21106C104.871 17.7294 111.445 27.166 118.1 36.5413C104.851 36.0306 91.6014 35.8264 78.3522 35.9489C73.0851 35.9898 73.0851 44.16 78.3522 44.1191C93.602 43.9762 108.852 44.2621 124.061 44.9566C131.431 55.1898 138.903 65.3413 146.476 75.4315ZM153.683 159.605C153.642 153.845 154.214 148.085 155.806 142.754C156.194 148.432 156.684 154.111 157.317 159.789C156.071 159.789 154.847 159.748 153.683 159.605ZM166.851 159.564H166.156C165.932 159.544 165.687 159.564 165.462 159.564C164.421 150.148 163.707 140.711 163.36 131.234C163.339 130.601 163.176 130.029 162.951 129.539C164.36 127.966 165.932 126.495 167.728 125.168C168.974 126.679 170.117 128.231 171.138 129.825C169.709 139.751 168.28 149.658 166.851 159.564ZM178.752 159.769L175.016 159.707C175.772 154.437 176.527 149.168 177.303 143.918C178.609 149.004 179.079 154.315 178.752 159.769Z" fill="#1A2C90"/>
</g>
<defs>
<clipPath id="clip0_51_243">
<rect width="187" height="168" fill="white" transform="translate(0.0201416)"/>
</clipPath>
</defs>
</svg>
