<svg width="32" height="34" viewBox="0 0 32 34" fill="none" xmlns="http://www.w3.org/2000/svg">
<path d="M24.7812 16.5263H24.6237C23.9769 13.6351 21.395 11.4638 18.3125 11.4638H16.3437V10.7438C17.3225 10.3951 18.0312 9.46696 18.0312 8.37008C18.0312 6.97508 16.895 5.83883 15.5 5.83883C14.105 5.83883 12.9687 6.97508 12.9687 8.37008C12.9687 9.46696 13.6775 10.3951 14.6562 10.7438V11.4638H12.6875C9.605 11.4638 7.02312 13.6351 6.37625 16.5263H6.21875C5.29062 16.5263 4.53125 17.2857 4.53125 18.2138V19.9013C4.53125 20.8295 5.29062 21.5888 6.21875 21.5888H6.52812C7.19187 23.6588 8.86812 25.2676 10.9719 25.8526C10.8144 26.1845 10.7187 26.5445 10.7187 26.9326C10.7187 27.3995 11.0956 27.7763 11.5625 27.7763H19.4375C19.9044 27.7763 20.2812 27.3995 20.2812 26.9326C20.2812 26.5445 20.1856 26.1788 20.0281 25.8526C22.1319 25.2732 23.8081 23.6588 24.4719 21.5888H24.7812C25.7094 21.5888 26.4687 20.8295 26.4687 19.9013V18.2138C26.4687 17.2857 25.7094 16.5263 24.7812 16.5263ZM15.5 7.52633C15.9669 7.52633 16.3437 7.90321 16.3437 8.37008C16.3437 8.83696 15.9669 9.21383 15.5 9.21383C15.0331 9.21383 14.6562 8.83696 14.6562 8.37008C14.6562 7.90321 15.0331 7.52633 15.5 7.52633ZM18.3125 24.4013H12.6875C10.0494 24.4013 7.90625 22.2582 7.90625 19.6201V17.9326C7.90625 15.2945 10.0494 13.1513 12.6875 13.1513H18.3125C20.9506 13.1513 23.0937 15.2945 23.0937 17.9326V19.6201C23.0937 22.2582 20.9506 24.4013 18.3125 24.4013Z" fill="#2258BF"/>
<path d="M12.4062 15.4013C11.4781 15.4013 10.7187 16.1607 10.7187 17.0888V18.7763C10.7187 19.7045 11.4781 20.4638 12.4062 20.4638C13.3344 20.4638 14.0937 19.7045 14.0937 18.7763V17.0888C14.0937 16.1607 13.3344 15.4013 12.4062 15.4013Z" fill="#2258BF"/>
<path d="M18.5937 15.4013C17.6656 15.4013 16.9062 16.1607 16.9062 17.0888V18.7763C16.9062 19.7045 17.6656 20.4638 18.5937 20.4638C19.5219 20.4638 20.2812 19.7045 20.2812 18.7763V17.0888C20.2812 16.1607 19.5219 15.4013 18.5937 15.4013Z" fill="#2258BF"/>
<path d="M9.61062 7.48133L11.2981 8.04383C11.3881 8.07196 11.4781 8.08883 11.5625 8.08883C11.9169 8.08883 12.2431 7.86383 12.3612 7.50946C12.5075 7.06508 12.2712 6.58696 11.8269 6.44071L10.1394 5.87821C9.70062 5.73196 9.2225 5.96821 9.07062 6.41258C8.91875 6.85696 9.16062 7.33508 9.605 7.48133H9.61062Z" fill="#2258BF"/>
<path d="M9.875 10.9013C9.965 10.9013 10.055 10.8901 10.1394 10.8563L11.8269 10.2938C12.2712 10.1476 12.5075 9.66946 12.3612 9.22508C12.215 8.78071 11.7369 8.54446 11.2925 8.69071L9.605 9.25321C9.16062 9.39946 8.92437 9.87758 9.07062 10.322C9.18875 10.6763 9.515 10.9013 9.86937 10.9013H9.875Z" fill="#2258BF"/>
<path d="M19.4375 8.08883C19.5275 8.08883 19.6175 8.07758 19.7019 8.04383L21.3894 7.48133C21.8337 7.33508 22.07 6.85696 21.9237 6.41258C21.7775 5.96821 21.2994 5.73196 20.855 5.87821L19.1675 6.44071C18.7231 6.58696 18.4869 7.06508 18.6331 7.50946C18.7512 7.86383 19.0775 8.08883 19.4319 8.08883H19.4375Z" fill="#2258BF"/>
<path d="M19.1731 10.2938L20.8606 10.8563C20.9506 10.8845 21.0406 10.9013 21.125 10.9013C21.4794 10.9013 21.8056 10.6763 21.9237 10.322C22.07 9.87758 21.8337 9.39946 21.3894 9.25321L19.7019 8.69071C19.2631 8.54446 18.7794 8.78071 18.6331 9.22508C18.4869 9.66946 18.7231 10.1476 19.1675 10.2938H19.1731Z" fill="#2258BF"/>
</svg>
