<svg width="24" height="25" viewBox="0 0 24 25" fill="none" xmlns="http://www.w3.org/2000/svg">
<path d="M22 17.371V5.30105C22 4.10105 21.02 3.21105 19.83 3.31105H19.77C17.67 3.49105 14.48 4.56105 12.7 5.68105L12.53 5.79105C12.24 5.97105 11.76 5.97105 11.47 5.79105L11.22 5.64105C9.44 4.53105 6.26 3.47105 4.16 3.30105C2.97 3.20105 2 4.10105 2 5.29105V17.371C2 18.331 2.78 19.231 3.74 19.351L4.03 19.391C6.2 19.681 9.55 20.781 11.47 21.831L11.51 21.851C11.78 22.001 12.21 22.001 12.47 21.851C14.39 20.791 17.75 19.681 19.93 19.391L20.26 19.351C21.22 19.231 22 18.331 22 17.371Z" stroke="#2258BF" stroke-width="1.5" stroke-linecap="round" stroke-linejoin="round"/>
<path d="M12 6.12109V21.1211" stroke="#2258BF" stroke-width="1.5" stroke-linecap="round" stroke-linejoin="round"/>
<path d="M7.75 9.12109H5.5" stroke="#2258BF" stroke-width="1.5" stroke-linecap="round" stroke-linejoin="round"/>
<path d="M8.5 12.1211H5.5" stroke="#2258BF" stroke-width="1.5" stroke-linecap="round" stroke-linejoin="round"/>
</svg>
