<svg width="26" height="26" viewBox="0 0 26 26" fill="none" xmlns="http://www.w3.org/2000/svg">
<path d="M22.625 5.12494H21.75V1.62494C21.75 1.47256 21.7102 1.32283 21.6345 1.19056C21.5589 1.05829 21.45 0.948067 21.3186 0.870807C21.1873 0.793548 21.0381 0.751928 20.8857 0.750065C20.7333 0.748203 20.5831 0.786163 20.4499 0.860189L13 4.99902L5.55007 0.860189C5.41688 0.786163 5.26667 0.748203 5.11431 0.750065C4.96194 0.751928 4.8127 0.793548 4.68136 0.870807C4.55002 0.948067 4.44113 1.05829 4.36547 1.19056C4.28981 1.32283 4.25001 1.47256 4.25 1.62494V5.12494H3.375C2.67904 5.1257 2.01181 5.40251 1.51969 5.89463C1.02757 6.38674 0.750764 7.05398 0.75 7.74994V10.3749C0.750764 11.0709 1.02757 11.7381 1.51969 12.2302C2.01181 12.7224 2.67904 12.9992 3.375 12.9999H4.25V22.6249C4.25076 23.3209 4.52757 23.9881 5.01969 24.4802C5.51181 24.9724 6.17904 25.2492 6.875 25.2499H19.125C19.821 25.2492 20.4882 24.9724 20.9803 24.4802C21.4724 23.9881 21.7492 23.3209 21.75 22.6249V12.9999H22.625C23.321 12.9992 23.9882 12.7224 24.4803 12.2302C24.9724 11.7381 25.2492 11.0709 25.25 10.3749V7.74994C25.2492 7.05398 24.9724 6.38674 24.4803 5.89463C23.9882 5.40251 23.321 5.1257 22.625 5.12494ZM20 5.12494H16.3769L20 3.11244V5.12494ZM6 3.11244L9.62311 5.12494H6V3.11244ZM6 22.6249V12.9999H12.125V23.4999H6.875C6.64303 23.4996 6.42064 23.4073 6.25661 23.2433C6.09258 23.0793 6.0003 22.8569 6 22.6249ZM20 22.6249C19.9997 22.8569 19.9074 23.0793 19.7434 23.2433C19.5794 23.4073 19.357 23.4996 19.125 23.4999H13.875V12.9999H20V22.6249ZM23.5 10.3749C23.4997 10.6069 23.4074 10.8293 23.2434 10.9933C23.0794 11.1574 22.857 11.2496 22.625 11.2499H3.375C3.14303 11.2496 2.92064 11.1574 2.75661 10.9933C2.59258 10.8293 2.5003 10.6069 2.5 10.3749V7.74994C2.5003 7.51796 2.59258 7.29558 2.75661 7.13155C2.92064 6.96752 3.14303 6.87524 3.375 6.87494H22.625C22.857 6.87524 23.0794 6.96752 23.2434 7.13155C23.4074 7.29558 23.4997 7.51796 23.5 7.74994V10.3749Z" fill="#342E59"/>
</svg>
