<svg width="32" height="33" viewBox="0 0 32 33" fill="none" xmlns="http://www.w3.org/2000/svg">
<g clip-path="url(#clip0_41_132)">
<path d="M24.4604 6.47949H7.31682C6.64742 6.48023 6.00565 6.74647 5.53231 7.21981C5.05897 7.69315 4.79273 8.33492 4.79199 9.00432V20.7868C4.79273 21.4562 5.05897 22.098 5.53231 22.5714C6.00565 23.0447 6.64742 23.3109 7.31682 23.3117C7.53999 23.3118 7.75398 23.4005 7.91178 23.5583C8.06958 23.7161 8.15829 23.9301 8.15843 24.1533V25.9474C8.15843 26.2521 8.24112 26.551 8.39768 26.8124C8.55423 27.0738 8.77879 27.2877 9.04741 27.4315C9.31602 27.5752 9.61861 27.6434 9.92292 27.6287C10.2272 27.614 10.5218 27.5169 10.7753 27.3479L16.6173 23.4531C16.7554 23.3605 16.9179 23.3113 17.0841 23.3117H21.187C21.7383 23.3106 22.2742 23.13 22.7136 22.797C23.1531 22.4641 23.472 21.997 23.6222 21.4665L26.8965 9.68072C26.9998 9.30543 27.0152 8.91136 26.9413 8.52917C26.8674 8.14699 26.7064 7.78701 26.4707 7.47724C26.2349 7.16748 25.9309 6.9163 25.5822 6.74324C25.2336 6.57019 24.8497 6.47993 24.4604 6.47949V6.47949ZM25.2732 9.23366L22.0005 21.0153C21.9499 21.192 21.8432 21.3475 21.6964 21.4581C21.5496 21.5687 21.3708 21.6285 21.187 21.6285H17.0841C16.5855 21.6278 16.098 21.7754 15.6836 22.0525L9.84165 25.9474V24.1533C9.84091 23.4839 9.57467 22.8421 9.10133 22.3688C8.62799 21.8954 7.98622 21.6292 7.31682 21.6285C7.09365 21.6283 6.87966 21.5396 6.72186 21.3818C6.56406 21.224 6.47534 21.01 6.47521 20.7868V9.00432C6.47534 8.78115 6.56406 8.56716 6.72186 8.40936C6.87966 8.25156 7.09365 8.16284 7.31682 8.16271H24.4604C24.5905 8.16304 24.7187 8.19338 24.8352 8.25138C24.9516 8.30937 25.0531 8.39345 25.1318 8.49707C25.2104 8.6007 25.2641 8.72107 25.2886 8.84882C25.3132 8.97658 25.3079 9.10827 25.2732 9.23366V9.23366Z" fill="#2258BF"/>
<path d="M9.84161 14.0538H14.0497C14.2729 14.0538 14.4869 13.9652 14.6448 13.8073C14.8026 13.6495 14.8913 13.4354 14.8913 13.2122C14.8913 12.989 14.8026 12.7749 14.6448 12.6171C14.4869 12.4593 14.2729 12.3706 14.0497 12.3706H9.84161C9.6184 12.3706 9.40433 12.4593 9.2465 12.6171C9.08867 12.7749 9 12.989 9 13.2122C9 13.4354 9.08867 13.6495 9.2465 13.8073C9.40433 13.9652 9.6184 14.0538 9.84161 14.0538Z" fill="#2258BF"/>
<path d="M17.4161 15.7373H9.84161C9.6184 15.7373 9.40433 15.826 9.2465 15.9838C9.08867 16.1416 9 16.3557 9 16.5789C9 16.8021 9.08867 17.0162 9.2465 17.174C9.40433 17.3319 9.6184 17.4205 9.84161 17.4205H17.4161C17.6393 17.4205 17.8534 17.3319 18.0112 17.174C18.169 17.0162 18.2577 16.8021 18.2577 16.5789C18.2577 16.3557 18.169 16.1416 18.0112 15.9838C17.8534 15.826 17.6393 15.7373 17.4161 15.7373Z" fill="#2258BF"/>
</g>
<defs>
<clipPath id="clip0_41_132">
<rect width="32" height="32" fill="white" transform="translate(0 0.630859)"/>
</clipPath>
</defs>
</svg>
