<svg width="32" height="33" viewBox="0 0 32 33" fill="none" xmlns="http://www.w3.org/2000/svg">
<path d="M16 21.3184C18.4162 21.3184 20.375 19.3596 20.375 16.9434C20.375 14.5271 18.4162 12.5684 16 12.5684C13.5838 12.5684 11.625 14.5271 11.625 16.9434C11.625 19.3596 13.5838 21.3184 16 21.3184Z" stroke="#2258BF" stroke-width="1.5" stroke-linecap="round" stroke-linejoin="round"/>
<path d="M23.4375 14.3184C24.4566 14.3167 25.462 14.5531 26.3735 15.0089C27.285 15.4646 28.0774 16.1271 28.6875 16.9434" stroke="#2258BF" stroke-width="1.5" stroke-linecap="round" stroke-linejoin="round"/>
<path d="M3.3125 16.9434C3.92259 16.1271 4.71499 15.4646 5.6265 15.0089C6.53801 14.5531 7.5434 14.3167 8.5625 14.3184" stroke="#2258BF" stroke-width="1.5" stroke-linecap="round" stroke-linejoin="round"/>
<path d="M9.7002 25.256C10.2764 24.0759 11.1725 23.0814 12.2863 22.3858C13.4001 21.6901 14.687 21.3213 16.0002 21.3213C17.3134 21.3213 18.6002 21.6901 19.7141 22.3858C20.8279 23.0814 21.724 24.0759 22.3002 25.256" stroke="#2258BF" stroke-width="1.5" stroke-linecap="round" stroke-linejoin="round"/>
<path d="M8.56264 14.3184C7.89834 14.319 7.24757 14.1306 6.68636 13.7752C6.12515 13.4198 5.67669 12.9119 5.39337 12.3111C5.11005 11.7102 5.00357 11.0412 5.08639 10.3821C5.1692 9.72294 5.43787 9.101 5.86102 8.58891C6.28417 8.07682 6.84431 7.69572 7.47601 7.49016C8.1077 7.28459 8.78485 7.26304 9.42833 7.42802C10.0718 7.593 10.6551 7.9377 11.1099 8.42185C11.5648 8.906 11.8725 9.50959 11.997 10.1621" stroke="#2258BF" stroke-width="1.5" stroke-linecap="round" stroke-linejoin="round"/>
<path d="M20.0029 10.1621C20.1275 9.50959 20.4352 8.906 20.89 8.42185C21.3449 7.9377 21.9281 7.593 22.5716 7.42802C23.2151 7.26304 23.8922 7.28459 24.5239 7.49016C25.1556 7.69572 25.7158 8.07682 26.1389 8.58891C26.5621 9.101 26.8307 9.72294 26.9136 10.3821C26.9964 11.0412 26.8899 11.7102 26.6066 12.3111C26.3232 12.9119 25.8748 13.4198 25.3136 13.7752C24.7524 14.1306 24.1016 14.319 23.4373 14.3184" stroke="#2258BF" stroke-width="1.5" stroke-linecap="round" stroke-linejoin="round"/>
</svg>
