<svg width="32" height="33" viewBox="0 0 32 33" fill="none" xmlns="http://www.w3.org/2000/svg">
<path d="M16 30.0685C15.2125 30.0685 14.475 29.7686 13.925 29.2061L12.025 27.3061C11.875 27.1561 11.475 26.9936 11.275 26.9936H8.575C6.95 26.9936 5.63749 25.681 5.63749 24.056V21.3561C5.63749 21.1561 5.47499 20.7561 5.32499 20.6061L3.425 18.7061C2.875 18.1561 2.5625 17.4185 2.5625 16.631C2.5625 15.8435 2.8625 15.106 3.425 14.556L5.32499 12.656C5.47499 12.506 5.63749 12.106 5.63749 11.906V9.20611C5.63749 7.58111 6.95 6.26848 8.575 6.26848H11.275C11.475 6.26848 11.875 6.10598 12.025 5.95598L13.925 4.05596C15.025 2.95596 16.975 2.95596 18.075 4.05596L19.975 5.95598C20.125 6.10598 20.525 6.26848 20.725 6.26848H23.425C25.05 6.26848 26.3625 7.58111 26.3625 9.20611V11.906C26.3625 12.106 26.525 12.506 26.675 12.656L28.575 14.556C29.125 15.106 29.4375 15.8435 29.4375 16.631C29.4375 17.4185 29.1375 18.1561 28.575 18.7061L26.675 20.6061C26.525 20.7561 26.3625 21.1561 26.3625 21.3561V24.056C26.3625 25.681 25.05 26.9936 23.425 26.9936H20.725C20.525 26.9936 20.125 27.1561 19.975 27.3061L18.075 29.2061C17.525 29.7686 16.7875 30.0685 16 30.0685ZM6.64999 19.281C7.14999 19.781 7.51249 20.6561 7.51249 21.3561V24.056C7.51249 24.6435 7.9875 25.1186 8.575 25.1186H11.275C11.975 25.1186 12.85 25.481 13.35 25.981L15.25 27.881C15.65 28.281 16.35 28.281 16.75 27.881L18.65 25.981C19.15 25.481 20.025 25.1186 20.725 25.1186H23.425C24.0125 25.1186 24.4875 24.6435 24.4875 24.056V21.3561C24.4875 20.6561 24.85 19.781 25.35 19.281L27.25 17.381C27.45 17.181 27.5625 16.9185 27.5625 16.631C27.5625 16.3435 27.45 16.0811 27.25 15.8811L25.35 13.981C24.85 13.481 24.4875 12.606 24.4875 11.906V9.20611C24.4875 8.61861 24.0125 8.14348 23.425 8.14348H20.725C20.025 8.14348 19.15 7.78106 18.65 7.28106L16.75 5.38103C16.35 4.98103 15.65 4.98103 15.25 5.38103L13.35 7.28106C12.85 7.78106 11.975 8.14348 11.275 8.14348H8.575C7.9875 8.14348 7.51249 8.61861 7.51249 9.20611V11.906C7.51249 12.606 7.14999 13.481 6.64999 13.981L4.75 15.8811C4.55 16.0811 4.4375 16.3435 4.4375 16.631C4.4375 16.9185 4.55 17.181 4.75 17.381L6.64999 19.281Z" fill="#2258BF"/>
<path d="M19.7503 21.6309C19.0503 21.6309 18.4878 21.0684 18.4878 20.3809C18.4878 19.6934 19.0503 19.1309 19.7378 19.1309C20.4253 19.1309 20.9878 19.6934 20.9878 20.3809C20.9878 21.0684 20.4378 21.6309 19.7503 21.6309Z" fill="#2258BF"/>
<path d="M12.2625 14.1309C11.5625 14.1309 11 13.5684 11 12.8809C11 12.1934 11.5625 11.6309 12.25 11.6309C12.9375 11.6309 13.5 12.1934 13.5 12.8809C13.5 13.5684 12.95 14.1309 12.2625 14.1309Z" fill="#2258BF"/>
<path d="M12.2493 21.3177C12.0118 21.3177 11.7743 21.2302 11.5868 21.0427C11.2243 20.6802 11.2243 20.0802 11.5868 19.7177L19.0869 12.2177C19.4494 11.8552 20.0494 11.8552 20.4119 12.2177C20.7744 12.5802 20.7744 13.1803 20.4119 13.5428L12.9118 21.0427C12.7243 21.2302 12.4868 21.3177 12.2493 21.3177Z" fill="#2258BF"/>
</svg>
