<svg width="25" height="26" viewBox="0 0 25 26" fill="none" xmlns="http://www.w3.org/2000/svg">
<g clip-path="url(#clip0_41_203)">
<path d="M8.66102 3.5H3.54197C2.83518 3.5 2.26221 4.05239 2.26221 4.73379V9.66894C2.26221 10.3503 2.83518 10.9027 3.54197 10.9027H8.66102C9.36781 10.9027 9.94078 10.3503 9.94078 9.66894V4.73379C9.94078 4.05239 9.36781 3.5 8.66102 3.5Z" stroke="#2258BF" stroke-width="1.5" stroke-linecap="round" stroke-linejoin="round"/>
<path d="M21.4586 3.5H16.3396C15.6328 3.5 15.0598 4.05239 15.0598 4.73379V9.66894C15.0598 10.3503 15.6328 10.9027 16.3396 10.9027H21.4586C22.1654 10.9027 22.7384 10.3503 22.7384 9.66894V4.73379C22.7384 4.05239 22.1654 3.5 21.4586 3.5Z" stroke="#2258BF" stroke-width="1.5" stroke-linecap="round" stroke-linejoin="round"/>
<path d="M8.66102 15.8379H3.54197C2.83518 15.8379 2.26221 16.3903 2.26221 17.0717V22.0068C2.26221 22.6882 2.83518 23.2406 3.54197 23.2406H8.66102C9.36781 23.2406 9.94078 22.6882 9.94078 22.0068V17.0717C9.94078 16.3903 9.36781 15.8379 8.66102 15.8379Z" stroke="#2258BF" stroke-width="1.5" stroke-linecap="round" stroke-linejoin="round"/>
<path d="M21.4586 15.8379H16.3396C15.6328 15.8379 15.0598 16.3903 15.0598 17.0717V22.0068C15.0598 22.6882 15.6328 23.2406 16.3396 23.2406H21.4586C22.1654 23.2406 22.7384 22.6882 22.7384 22.0068V17.0717C22.7384 16.3903 22.1654 15.8379 21.4586 15.8379Z" stroke="#2258BF" stroke-width="1.5" stroke-linecap="round" stroke-linejoin="round"/>
</g>
<defs>
<clipPath id="clip0_41_203">
<rect width="25" height="25" fill="white" transform="translate(0 0.630859)"/>
</clipPath>
</defs>
</svg>
