<svg width="22" height="28" viewBox="0 0 22 28" fill="none" xmlns="http://www.w3.org/2000/svg">
<path fill-rule="evenodd" clip-rule="evenodd" d="M13.8025 21.4939C16.8371 20.3579 19.0011 17.4285 19.0011 13.9992C19.0011 11.7912 18.1038 9.79117 16.6558 8.34317C16.1358 7.82317 16.1358 6.97786 16.6558 6.45786C17.1771 5.93786 18.0211 5.93786 18.5425 6.45786C20.4731 8.38853 21.6678 11.0552 21.6678 13.9992C21.6678 18.6432 18.6931 22.5979 14.5465 24.0605L15.7611 24.9032C16.3651 25.3232 16.5158 26.1539 16.0958 26.7592C15.6771 27.3632 14.8451 27.5138 14.2411 27.0938L10.2411 24.3192C9.63847 23.9019 9.48647 23.0752 9.90114 22.4698L12.5678 18.5792C12.9838 17.9712 13.8145 17.8165 14.4211 18.2325C15.0278 18.6485 15.1825 19.4792 14.7665 20.0859L13.8025 21.4939ZM7.48647 3.92586L6.26114 3.10851C5.64914 2.70051 5.48247 1.87118 5.89047 1.25918C6.29981 0.647179 7.12781 0.481845 7.73981 0.889845L11.7398 3.55651C12.3531 3.96451 12.5185 4.79252 12.1105 5.40586L9.44381 9.40586C9.03447 10.0179 8.20647 10.1832 7.59447 9.77518C6.98247 9.36718 6.81581 8.53786 7.22381 7.92586L8.1638 6.51786C5.14647 7.66319 3.00114 10.5818 3.00114 13.9992C3.00114 16.2072 3.89714 18.2059 5.34514 19.6552C5.86514 20.1752 5.86514 21.0192 5.34514 21.5405C4.82514 22.0605 3.9798 22.0605 3.4598 21.5405C1.52914 19.6099 0.334473 16.9432 0.334473 13.9992C0.334473 9.34318 3.3238 5.37919 7.48647 3.92586V3.92586Z" fill="#2258BF"/>
</svg>
