<svg width="32" height="32" viewBox="0 0 32 32" fill="none" xmlns="http://www.w3.org/2000/svg">
<path opacity="0.2" d="M15.001 6.4375L7.54139 9.28804C7.37707 9.35082 7.23186 9.45656 7.12035 9.59463C7.00884 9.7327 6.93495 9.89824 6.9061 10.0746L4.00098 27.8367L21.4317 24.8764C21.6048 24.847 21.7672 24.7717 21.9027 24.658C22.0382 24.5444 22.142 24.3965 22.2036 24.229L25.001 16.6276L15.001 6.4375ZM14.5002 19.6842C14.0058 19.6842 13.5224 19.5348 13.1113 19.2549C12.7002 18.975 12.3798 18.5771 12.1905 18.1116C12.0013 17.6461 11.9518 17.1339 12.0483 16.6397C12.1447 16.1455 12.3828 15.6916 12.7325 15.3353C13.0821 14.979 13.5276 14.7364 14.0125 14.6381C14.4975 14.5398 15.0001 14.5903 15.457 14.7831C15.9138 14.9759 16.3042 15.3024 16.5789 15.7214C16.8536 16.1403 17.0002 16.6328 17.0002 17.1367C17.0002 17.4712 16.9356 17.8025 16.8099 18.1116C16.6843 18.4207 16.5002 18.7015 16.268 18.9381C16.0359 19.1746 15.7603 19.3623 15.457 19.4903C15.1536 19.6183 14.8286 19.6842 14.5002 19.6842Z" fill="#2258BF"/>
<path d="M14.5 19.6844C15.8807 19.6844 17 18.5438 17 17.1369C17 15.7299 15.8807 14.5894 14.5 14.5894C13.1193 14.5894 12 15.7299 12 17.1369C12 18.5438 13.1193 19.6844 14.5 19.6844Z" stroke="#2258BF" stroke-width="2" stroke-linecap="round" stroke-linejoin="round"/>
<path d="M4.00049 27.8372L12.732 18.9385" stroke="#2258BF" stroke-width="2" stroke-linecap="round" stroke-linejoin="round"/>
<path d="M4.00049 27.8367L21.4312 24.8764C21.6043 24.847 21.7668 24.7717 21.9023 24.6581C22.0377 24.5444 22.1415 24.3965 22.2031 24.229L25.0005 16.6276L15.0005 6.4375L7.54088 9.28804C7.37657 9.35083 7.23137 9.45657 7.11986 9.59464C7.00835 9.73272 6.93446 9.89826 6.90561 10.0746L4.00049 27.8367Z" stroke="#2258BF" stroke-width="2" stroke-linecap="round" stroke-linejoin="round"/>
<path d="M25.0005 16.6278L28.2934 13.2723C28.3862 13.1776 28.4599 13.0653 28.5102 12.9417C28.5604 12.818 28.5863 12.6855 28.5863 12.5517C28.5863 12.4179 28.5604 12.2854 28.5102 12.1618C28.4599 12.0381 28.3862 11.9258 28.2934 11.8312L19.7076 3.08215C19.5201 2.89105 19.2657 2.78369 19.0005 2.78369C18.7353 2.78369 18.4809 2.89105 18.2934 3.08215L15.0005 6.43765" stroke="#2258BF" stroke-width="2" stroke-linecap="round" stroke-linejoin="round"/>
</svg>
