<svg width="22" height="22" viewBox="0 0 22 22" fill="none" xmlns="http://www.w3.org/2000/svg">
<path d="M11.0001 6.625C10.1348 6.625 9.28896 6.88159 8.5695 7.36232C7.85004 7.84305 7.28928 8.52633 6.95815 9.32576C6.62702 10.1252 6.54038 11.0048 6.70919 11.8535C6.878 12.7022 7.29468 13.4817 7.90653 14.0936C8.51838 14.7054 9.29793 15.1221 10.1466 15.2909C10.9953 15.4597 11.8749 15.3731 12.6744 15.042C13.4738 14.7108 14.1571 14.1501 14.6378 13.4306C15.1185 12.7111 15.3751 11.8653 15.3751 11C15.3737 9.84009 14.9124 8.72809 14.0922 7.90791C13.272 7.08774 12.16 6.62637 11.0001 6.625ZM11.0001 13.625C10.4809 13.625 9.97342 13.471 9.54175 13.1826C9.11007 12.8942 8.77362 12.4842 8.57494 12.0045C8.37626 11.5249 8.32427 10.9971 8.42556 10.4879C8.52685 9.97868 8.77685 9.51095 9.14396 9.14384C9.51108 8.77673 9.97881 8.52672 10.488 8.42544C10.9972 8.32415 11.525 8.37613 12.0047 8.57481C12.4843 8.77349 12.8943 9.10994 13.1827 9.54162C13.4712 9.9733 13.6251 10.4808 13.6251 11C13.6243 11.6959 13.3475 12.3632 12.8554 12.8553C12.3633 13.3474 11.6961 13.6242 11.0001 13.625Z" fill="white"/>
<path d="M2.48931 5.55995C2.05905 5.3983 1.58279 5.41036 1.16126 5.59358C0.739741 5.7768 0.406021 6.11681 0.230699 6.54168C0.0553773 6.96654 0.0522048 7.44295 0.221853 7.87012C0.391501 8.29728 0.720663 8.6417 1.13971 8.83052C1.56601 9.01083 1.92974 9.31275 2.18546 9.69857C2.44118 10.0844 2.57756 10.537 2.57756 10.9999C2.57756 11.4627 2.44118 11.9153 2.18546 12.3012C1.92974 12.687 1.56601 12.9889 1.13971 13.1692C0.720563 13.358 0.391321 13.7025 0.22165 14.1298C0.0519783 14.557 0.0551899 15.0335 0.230605 15.4585C0.40602 15.8834 0.739875 16.2234 1.16153 16.4065C1.58318 16.5897 2.05955 16.6016 2.48983 16.4398C2.91921 16.2649 3.39064 16.2206 3.84506 16.3125C4.29949 16.4043 4.71671 16.6283 5.04446 16.9562C5.3722 17.2841 5.59591 17.7014 5.68754 18.1559C5.77918 18.6103 5.73467 19.0817 5.5596 19.511C5.39271 19.9424 5.40307 20.4223 5.58842 20.8461C5.77376 21.2699 6.11908 21.6033 6.54913 21.7737C6.7645 21.8628 6.99531 21.9087 7.2284 21.9087C7.56891 21.9111 7.90255 21.8129 8.1875 21.6265C8.47244 21.44 8.69601 21.1736 8.83017 20.8606C9.01048 20.4343 9.3124 20.0706 9.69822 19.8149C10.084 19.5592 10.5366 19.4228 10.9995 19.4228C11.4624 19.4228 11.915 19.5592 12.3008 19.8149C12.6866 20.0706 12.9885 20.4343 13.1689 20.8606C13.3577 21.2798 13.7022 21.609 14.1294 21.7787C14.5567 21.9484 15.0332 21.9452 15.4581 21.7697C15.883 21.5943 16.223 21.2605 16.4062 20.8388C16.5893 20.4172 16.6013 19.9408 16.4394 19.5105C16.2646 19.0811 16.2203 18.6097 16.3121 18.1553C16.404 17.7008 16.6279 17.2836 16.9558 16.9559C17.2837 16.6281 17.701 16.4044 18.1555 16.3128C18.61 16.2212 19.0814 16.2657 19.5107 16.4407C19.9394 16.6072 20.4164 16.5983 20.8386 16.4159C21.2608 16.2335 21.5942 15.8924 21.767 15.4662L20.9646 15.1176L20.1683 14.8194C19.4205 14.5138 18.599 14.4362 17.8072 14.5963C17.0154 14.7564 16.2886 15.1471 15.7182 15.7191C15.1482 16.2937 14.7566 17.0209 14.5906 17.813C14.4245 18.6051 14.4912 19.4283 14.7824 20.1834C14.4703 19.4382 13.9446 18.802 13.2715 18.3552C12.5984 17.9083 11.808 17.6707 11.0001 17.6724C10.1904 17.6749 9.39876 17.912 8.72103 18.3551C8.04329 18.7981 7.50848 19.4281 7.18132 20.1688C7.48664 19.4209 7.56413 18.5995 7.40404 17.8077C7.24395 17.0159 6.85344 16.2891 6.28156 15.7186C5.70694 15.1487 4.97978 14.7572 4.18769 14.5911C3.39561 14.4251 2.57241 14.4917 1.81731 14.7829C2.5625 14.4707 3.19857 13.9448 3.64534 13.2716C4.0921 12.5984 4.32956 11.808 4.32777 11.0001C4.32526 10.1904 4.08814 9.39876 3.64509 8.72102C3.20204 8.04328 2.57207 7.50848 1.8314 7.18132C2.57924 7.48683 3.40071 7.56441 4.19252 7.40432C4.98434 7.24422 5.71115 6.8536 6.28156 6.28156C6.85153 5.70699 7.24314 4.97982 7.40916 4.18772C7.57519 3.39561 7.50855 2.5724 7.21728 1.81731C7.5295 2.5625 8.05535 3.19857 8.72855 3.64534C9.40174 4.0921 10.1921 4.32956 11.0001 4.32777C11.8098 4.32526 12.6014 4.08814 13.2791 3.64509C13.9569 3.20204 14.4917 2.57207 14.8188 1.8314C14.5135 2.57927 14.436 3.40069 14.5961 4.19247C14.7562 4.98424 15.1467 5.71104 15.7186 6.28156C16.2934 6.85124 17.0205 7.24264 17.8126 7.40866C18.6046 7.57467 19.4277 7.50821 20.1829 7.21728C19.4413 7.52884 18.8078 8.05178 18.3614 8.72091C17.9149 9.39005 17.6753 10.1758 17.6724 10.9802C17.6695 11.7845 17.9034 12.572 18.345 13.2443C18.7865 13.9167 19.4162 14.4442 20.1556 14.7611C20.158 14.7683 20.158 14.7761 20.1556 14.7833L20.9643 15.117L21.7684 15.4618L21.7731 15.4507C21.9517 15.0269 21.9561 14.5499 21.7852 14.1229C21.6144 13.696 21.2821 13.3536 20.8605 13.1701C20.4342 12.9898 20.0704 12.6878 19.8147 12.302C19.559 11.9162 19.4226 11.4636 19.4226 11.0007C19.4226 10.5379 19.559 10.0853 19.8147 9.69944C20.0704 9.31363 20.4342 9.01171 20.8605 8.8314C21.2796 8.64258 21.6088 8.2981 21.7785 7.87084C21.9482 7.44358 21.945 6.96708 21.7696 6.54215C21.5941 6.11722 21.2603 5.77721 20.8386 5.59406C20.417 5.4109 19.9406 5.39899 19.5103 5.56082C19.081 5.73569 18.6095 5.77996 18.1551 5.68811C17.7007 5.59625 17.2835 5.37235 16.9557 5.04444C16.628 4.71654 16.4043 4.29921 16.3126 3.84474C16.221 3.39027 16.2655 2.91886 16.4406 2.48957C16.6023 2.05931 16.5904 1.58298 16.4072 1.16138C16.224 0.739779 15.884 0.405977 15.4591 0.230602C15.0342 0.0552274 14.5578 0.0520378 14.1305 0.221708C13.7033 0.391379 13.3589 0.720598 13.1701 1.13971C12.9898 1.56601 12.6879 1.92974 12.302 2.18546C11.9162 2.44118 11.4636 2.57756 11.0007 2.57756C10.5379 2.57756 10.0853 2.44118 9.69945 2.18546C9.31363 1.92974 9.01171 1.56601 8.8314 1.13971C8.64258 0.720563 8.2981 0.391321 7.87084 0.22165C7.44359 0.0519783 6.96708 0.0551899 6.54215 0.230605C6.11722 0.40602 5.77721 0.739875 5.59406 1.16153C5.41091 1.58318 5.39899 2.05955 5.56082 2.48983C5.73569 2.91921 5.77997 3.39064 5.68811 3.84506C5.59625 4.29949 5.37235 4.71671 5.04444 5.04446C4.71654 5.3722 4.29921 5.59591 3.84474 5.68754C3.39027 5.77918 2.91886 5.73467 2.48957 5.5596L2.48931 5.55995Z" fill="white"/>
</svg>
