<svg width="262" height="56" viewBox="0 0 262 56" fill="none" xmlns="http://www.w3.org/2000/svg">
<path d="M82.144 16.2967V20.6807H76.192V38.7607H70.72V20.6807H64.768V16.2967H82.144ZM102.522 20.9047V38.7607H97.0503V36.3287C96.4956 37.1181 95.7383 37.7581 94.7783 38.2487C93.8396 38.7181 92.7943 38.9527 91.6423 38.9527C90.2769 38.9527 89.0716 38.6541 88.0263 38.0567C86.9809 37.4381 86.1703 36.5527 85.5943 35.4007C85.0183 34.2487 84.7303 32.8941 84.7303 31.3367V20.9047H90.1703V30.6007C90.1703 31.7954 90.4796 32.7234 91.0983 33.3847C91.7169 34.0461 92.5489 34.3767 93.5943 34.3767C94.6609 34.3767 95.5036 34.0461 96.1223 33.3847C96.7409 32.7234 97.0503 31.7954 97.0503 30.6007V20.9047H102.522ZM116.405 34.1207V38.7607H113.621C111.637 38.7607 110.09 38.2807 108.981 37.3207C107.871 36.3394 107.317 34.7501 107.317 32.5527V25.4487H105.141V20.9047H107.317V16.5527H112.789V20.9047H116.373V25.4487H112.789V32.6167C112.789 33.1501 112.917 33.5341 113.173 33.7687C113.429 34.0034 113.855 34.1207 114.453 34.1207H116.405ZM127.581 39.0167C125.831 39.0167 124.253 38.6434 122.845 37.8967C121.458 37.1501 120.359 36.0834 119.549 34.6967C118.759 33.3101 118.365 31.6887 118.365 29.8327C118.365 27.9981 118.77 26.3874 119.581 25.0007C120.391 23.5927 121.501 22.5154 122.909 21.7687C124.317 21.0221 125.895 20.6487 127.645 20.6487C129.394 20.6487 130.973 21.0221 132.381 21.7687C133.789 22.5154 134.898 23.5927 135.709 25.0007C136.519 26.3874 136.925 27.9981 136.925 29.8327C136.925 31.6674 136.509 33.2887 135.677 34.6967C134.866 36.0834 133.746 37.1501 132.317 37.8967C130.909 38.6434 129.33 39.0167 127.581 39.0167ZM127.581 34.2807C128.626 34.2807 129.511 33.8967 130.237 33.1287C130.983 32.3607 131.357 31.2621 131.357 29.8327C131.357 28.4034 130.994 27.3047 130.269 26.5367C129.565 25.7687 128.69 25.3847 127.645 25.3847C126.578 25.3847 125.693 25.7687 124.989 26.5367C124.285 27.2834 123.933 28.3821 123.933 29.8327C123.933 31.2621 124.274 32.3607 124.957 33.1287C125.661 33.8967 126.535 34.2807 127.581 34.2807ZM145.3 23.8807C145.94 22.8994 146.74 22.1314 147.7 21.5767C148.66 21.0007 149.726 20.7127 150.9 20.7127V26.5047H149.396C148.03 26.5047 147.006 26.8034 146.324 27.4007C145.641 27.9767 145.3 29.0007 145.3 30.4727V38.7607H139.828V20.9047H145.3V23.8807ZM176.457 16.2967V20.6807H170.505V38.7607H165.033V20.6807H159.081V16.2967H176.457ZM187.331 39.0167C185.581 39.0167 184.003 38.6434 182.595 37.8967C181.208 37.1501 180.109 36.0834 179.299 34.6967C178.509 33.3101 178.115 31.6887 178.115 29.8327C178.115 27.9981 178.52 26.3874 179.331 25.0007C180.141 23.5927 181.251 22.5154 182.659 21.7687C184.067 21.0221 185.645 20.6487 187.395 20.6487C189.144 20.6487 190.723 21.0221 192.131 21.7687C193.539 22.5154 194.648 23.5927 195.459 25.0007C196.269 26.3874 196.675 27.9981 196.675 29.8327C196.675 31.6674 196.259 33.2887 195.427 34.6967C194.616 36.0834 193.496 37.1501 192.067 37.8967C190.659 38.6434 189.08 39.0167 187.331 39.0167ZM187.331 34.2807C188.376 34.2807 189.261 33.8967 189.987 33.1287C190.733 32.3607 191.107 31.2621 191.107 29.8327C191.107 28.4034 190.744 27.3047 190.019 26.5367C189.315 25.7687 188.44 25.3847 187.395 25.3847C186.328 25.3847 185.443 25.7687 184.739 26.5367C184.035 27.2834 183.683 28.3821 183.683 29.8327C183.683 31.2621 184.024 32.3607 184.707 33.1287C185.411 33.8967 186.285 34.2807 187.331 34.2807ZM198.49 29.8007C198.49 27.9661 198.831 26.3554 199.514 24.9687C200.218 23.5821 201.167 22.5154 202.362 21.7687C203.556 21.0221 204.89 20.6487 206.362 20.6487C207.535 20.6487 208.602 20.8941 209.562 21.3847C210.543 21.8754 211.311 22.5367 211.866 23.3687V15.0807H217.338V38.7607H211.866V36.2007C211.354 37.0541 210.618 37.7367 209.658 38.2487C208.719 38.7607 207.62 39.0167 206.362 39.0167C204.89 39.0167 203.556 38.6434 202.362 37.8967C201.167 37.1287 200.218 36.0514 199.514 34.6647C198.831 33.2567 198.49 31.6354 198.49 29.8007ZM211.866 29.8327C211.866 28.4674 211.482 27.3901 210.714 26.6007C209.967 25.8114 209.05 25.4167 207.962 25.4167C206.874 25.4167 205.946 25.8114 205.178 26.6007C204.431 27.3687 204.058 28.4354 204.058 29.8007C204.058 31.1661 204.431 32.2541 205.178 33.0647C205.946 33.8541 206.874 34.2487 207.962 34.2487C209.05 34.2487 209.967 33.8541 210.714 33.0647C211.482 32.2754 211.866 31.1981 211.866 29.8327ZM220.209 29.8007C220.209 27.9661 220.55 26.3554 221.233 24.9687C221.937 23.5821 222.886 22.5154 224.081 21.7687C225.275 21.0221 226.609 20.6487 228.081 20.6487C229.339 20.6487 230.438 20.9047 231.377 21.4167C232.337 21.9287 233.073 22.6007 233.585 23.4327V20.9047H239.057V38.7607H233.585V36.2327C233.051 37.0647 232.305 37.7367 231.345 38.2487C230.406 38.7607 229.307 39.0167 228.049 39.0167C226.598 39.0167 225.275 38.6434 224.081 37.8967C222.886 37.1287 221.937 36.0514 221.233 34.6647C220.55 33.2567 220.209 31.6354 220.209 29.8007ZM233.585 29.8327C233.585 28.4674 233.201 27.3901 232.433 26.6007C231.686 25.8114 230.769 25.4167 229.681 25.4167C228.593 25.4167 227.665 25.8114 226.897 26.6007C226.15 27.3687 225.777 28.4354 225.777 29.8007C225.777 31.1661 226.15 32.2541 226.897 33.0647C227.665 33.8541 228.593 34.2487 229.681 34.2487C230.769 34.2487 231.686 33.8541 232.433 33.0647C233.201 32.2754 233.585 31.1981 233.585 29.8327ZM261.255 20.9047L250.055 47.2407H244.167L248.263 38.1527L240.999 20.9047H247.111L251.239 32.0727L255.335 20.9047H261.255Z" fill="#2258BF"/>
<rect y="0.703613" width="54" height="55.0266" rx="27" fill="#2258BF"/>
<mask id="mask0_29_13" style="mask-type:alpha" maskUnits="userSpaceOnUse" x="0" y="0" width="54" height="56">
<rect y="0.703613" width="54" height="55.0266" rx="27" fill="#2258BF"/>
</mask>
<g mask="url(#mask0_29_13)">
<path d="M46.1676 -4.08918C46.1217 -4.32293 45.8613 -4.50326 45.4992 -4.55349L34.9748 -6.01316L42.8656 -13.1617C43.0566 -13.3327 43.1127 -13.5419 43.0179 -13.724C42.9212 -13.9063 42.6882 -14.0387 42.3881 -14.0803L31.1321 -15.6415C30.7288 -15.6974 30.2838 -15.5798 30.0264 -15.3505L14.9917 -1.84368C14.8007 -1.67267 14.744 -1.46223 14.8407 -1.27993C14.933 -1.09691 15.1679 -0.964277 15.4699 -0.922389L21.672 -0.0621948L7.46108 12.7039C7.17548 12.9605 7.20179 13.2903 7.52479 13.4858C7.64097 13.5565 7.78352 13.6036 7.93924 13.6252C8.21129 13.6629 8.51968 13.6225 8.77819 13.5037L45.7106 -3.46262C46.0342 -3.61003 46.2128 -3.8542 46.1676 -4.08918Z" fill="#FFC42C"/>
<path d="M43.3376 -6.95686C43.2917 -7.1906 43.0312 -7.37094 42.6691 -7.42116L32.1447 -8.88084L40.0355 -16.0294C40.2265 -16.2004 40.2826 -16.4096 40.1878 -16.5916C40.0912 -16.774 39.8581 -16.9064 39.558 -16.948L28.302 -18.5092C27.8987 -18.5651 27.4538 -18.4475 27.1963 -18.2181L12.1617 -4.71136C11.9706 -4.54035 11.9139 -4.3299 12.0106 -4.1476C12.1029 -3.96458 12.3378 -3.83195 12.6398 -3.79007L18.8419 -2.92987L4.631 9.8362C4.3454 10.0928 4.37171 10.4226 4.69471 10.6182C4.81089 10.6888 4.95344 10.7359 5.10916 10.7575C5.38122 10.7952 5.6896 10.7548 5.94812 10.6361L42.8805 -6.3303C43.2041 -6.47771 43.3827 -6.72187 43.3376 -6.95686Z" fill="white"/>
</g>
</svg>
